<svg id="svg" version="1.1" width="400" height="184.61538461538464" viewBox="0 0 400 184.61538461538464" xmlns="http://www.w3.org/2000/svg" xmlns:xlink="http://www.w3.org/1999/xlink" ><g id="svgg"><path id="path0" d="M11.833 37.494 C 5.829 38.783,3.247 42.671,3.253 50.417 C 3.259 58.094,5.049 61.333,13.250 68.504 C 18.602 73.184,19.860 75.031,20.100 78.566 C 20.393 82.876,19.164 84.833,16.167 84.833 C 13.121 84.833,12.178 83.336,12.170 78.492 C 12.166 76.167,12.100 76.000,11.177 76.000 C 10.519 76.000,4.137 76.639,3.526 76.766 L 3.135 76.848 3.209 80.549 C 3.308 85.480,3.812 87.222,5.848 89.668 C 10.064 94.734,21.423 95.084,26.169 90.293 C 28.857 87.580,29.572 85.098,29.459 78.874 C 29.318 71.127,27.404 67.700,19.242 60.582 C 14.028 56.034,12.640 53.959,12.526 50.539 C 12.418 47.297,13.445 45.930,15.993 45.921 C 18.447 45.913,19.420 47.137,19.611 50.470 C 19.741 52.743,19.462 52.576,22.628 52.270 C 24.070 52.130,25.850 51.967,26.583 51.907 C 28.669 51.737,28.557 51.926,28.459 48.774 C 28.260 42.354,25.171 38.434,19.500 37.405 C 17.658 37.071,13.585 37.118,11.833 37.494 M154.248 37.409 C 149.167 38.333,145.614 42.048,144.473 47.632 C 143.969 50.103,144.086 82.142,144.606 83.917 C 146.547 90.534,150.829 93.602,158.083 93.573 C 165.028 93.545,169.393 90.387,171.197 84.083 L 171.579 82.750 171.628 65.917 C 171.682 47.742,171.695 48.059,170.801 45.425 C 168.666 39.134,162.142 35.975,154.248 37.409 M30.167 37.996 C 29.849 38.197,29.695 45.764,29.997 46.328 C 30.172 46.655,30.328 46.667,34.423 46.667 L 38.667 46.667 38.667 69.649 C 38.667 90.452,38.692 92.641,38.930 92.732 C 39.460 92.935,47.589 92.845,47.800 92.633 C 47.954 92.480,48.000 87.127,48.000 69.553 L 48.000 46.672 52.292 46.628 L 56.583 46.583 56.628 42.437 C 56.659 39.519,56.616 38.224,56.483 38.062 C 56.252 37.785,30.604 37.720,30.167 37.996 M60.684 38.063 C 60.542 38.233,60.505 44.135,60.538 60.938 L 60.583 83.583 61.043 85.048 C 62.928 91.057,67.493 93.958,74.539 93.624 C 81.144 93.312,85.384 89.965,86.506 84.179 C 86.965 81.811,87.025 38.109,86.570 37.934 C 86.182 37.786,78.118 37.816,77.880 37.967 C 77.723 38.067,77.666 42.946,77.625 59.673 C 77.569 82.819,77.613 81.732,76.691 83.185 C 75.281 85.407,71.367 85.170,70.145 82.789 C 69.552 81.632,69.510 80.069,69.505 58.992 C 69.501 43.074,69.453 38.187,69.300 38.033 C 68.990 37.724,60.942 37.751,60.684 38.063 M94.542 38.024 C 94.243 38.324,94.235 92.335,94.533 92.633 C 94.863 92.963,108.553 92.911,110.332 92.574 C 116.047 91.490,119.522 88.023,120.432 82.500 C 120.775 80.419,120.775 50.248,120.432 48.167 C 119.595 43.082,116.550 39.753,111.417 38.309 C 109.790 37.852,94.962 37.601,94.542 38.024 M128.095 38.095 C 127.742 38.449,127.689 92.072,128.042 92.554 C 128.231 92.813,128.662 92.835,132.667 92.795 L 137.083 92.750 137.125 65.427 C 137.159 43.678,137.125 38.077,136.959 37.971 C 136.523 37.694,128.382 37.808,128.095 38.095 M178.208 39.123 C 178.253 39.285,179.694 43.167,181.411 47.750 C 183.128 52.333,186.468 61.258,188.833 67.583 C 191.198 73.908,194.040 81.507,195.150 84.469 C 196.259 87.431,197.167 90.031,197.167 90.245 C 197.167 90.609,196.527 92.417,193.748 99.917 C 193.137 101.567,192.236 104.004,191.746 105.333 C 191.257 106.662,190.357 109.100,189.746 110.750 C 189.136 112.400,188.236 114.837,187.746 116.167 C 186.286 120.132,184.871 123.959,181.588 132.833 C 177.488 143.912,177.000 145.257,177.000 145.479 C 177.000 145.615,179.185 145.667,184.981 145.667 L 192.963 145.667 193.407 144.375 C 193.652 143.665,196.464 135.248,199.657 125.671 C 203.276 114.814,205.563 108.194,205.731 108.088 C 206.374 107.682,206.408 107.761,209.669 117.083 C 210.022 118.092,210.870 120.492,211.554 122.417 C 212.238 124.342,213.780 128.692,214.981 132.083 C 216.182 135.475,217.750 139.900,218.464 141.917 L 219.764 145.583 227.966 145.627 C 232.476 145.650,236.167 145.624,236.167 145.569 C 236.167 145.513,235.461 143.581,234.598 141.276 C 233.735 138.970,231.853 133.933,230.416 130.083 C 228.979 126.233,226.527 119.671,224.968 115.500 C 223.409 111.329,221.198 105.404,220.054 102.333 C 218.910 99.263,217.492 95.464,216.904 93.891 C 215.614 90.448,215.580 91.369,217.152 87.136 C 218.310 84.018,220.737 77.452,223.363 70.333 C 223.819 69.096,224.555 67.108,224.999 65.917 C 225.442 64.725,226.443 62.025,227.222 59.917 C 229.656 53.328,230.237 51.755,232.567 45.453 C 233.814 42.082,234.833 39.213,234.833 39.078 C 234.833 38.866,233.765 38.833,226.855 38.833 L 218.876 38.833 216.254 46.625 C 207.058 73.949,207.419 72.914,207.061 72.966 C 206.525 73.045,206.450 72.875,204.330 66.819 C 203.226 63.664,201.835 59.696,201.239 58.000 C 200.643 56.304,198.894 51.317,197.353 46.917 L 194.550 38.917 186.339 38.873 C 178.570 38.833,178.131 38.846,178.208 39.123 M160.097 46.416 C 160.933 46.906,161.681 47.920,162.005 49.000 C 162.305 50.002,162.453 77.899,162.171 80.333 C 161.553 85.677,155.539 86.715,153.879 81.765 C 153.535 80.739,153.338 53.292,153.654 50.452 C 154.085 46.580,157.127 44.675,160.097 46.416 M108.315 46.910 C 109.787 47.429,110.561 48.313,111.115 50.105 C 111.634 51.786,111.574 79.086,111.048 80.750 C 110.236 83.317,108.720 84.144,104.792 84.162 L 103.667 84.167 103.667 65.308 L 103.667 46.449 105.637 46.555 C 106.721 46.613,107.926 46.773,108.315 46.910 M242.625 91.347 C 242.331 91.518,242.144 145.145,242.434 145.903 C 242.599 146.331,266.121 146.303,266.297 145.875 C 266.453 145.495,266.453 138.172,266.297 137.792 C 266.185 137.520,265.675 137.500,258.922 137.500 L 251.667 137.500 251.667 130.083 L 251.667 122.667 257.467 122.667 C 261.756 122.667,263.319 122.615,263.467 122.467 C 263.751 122.183,263.751 114.484,263.467 114.200 C 263.319 114.052,261.756 114.000,257.467 114.000 L 251.667 114.000 251.667 106.917 L 251.667 99.833 258.922 99.833 C 265.675 99.833,266.185 99.813,266.297 99.542 C 266.554 98.916,266.436 91.500,266.167 91.330 C 265.814 91.107,243.009 91.123,242.625 91.347 M272.781 91.375 C 272.516 91.570,272.500 93.362,272.541 118.833 L 272.583 146.083 277.072 146.128 C 280.552 146.162,281.590 146.125,281.694 145.961 C 281.768 145.845,281.829 140.556,281.831 134.208 L 281.833 122.667 286.083 122.667 L 290.333 122.667 290.336 134.208 C 290.337 140.556,290.399 145.845,290.472 145.961 C 290.576 146.125,291.615 146.162,295.095 146.128 L 299.583 146.083 299.626 118.833 C 299.666 93.362,299.651 91.570,299.386 91.375 C 299.024 91.109,291.147 91.076,290.656 91.339 C 290.342 91.507,290.333 91.809,290.333 102.673 L 290.333 113.833 286.083 113.833 L 281.833 113.833 281.833 102.673 C 281.833 91.809,281.825 91.507,281.511 91.339 C 281.020 91.076,273.143 91.109,272.781 91.375 M307.124 91.365 C 306.846 91.572,306.833 93.005,306.874 118.833 L 306.917 146.083 311.313 146.128 C 314.417 146.159,315.776 146.116,315.938 145.982 C 316.128 145.825,316.167 143.892,316.167 134.646 L 316.167 123.500 317.477 123.500 L 318.788 123.500 319.239 125.125 C 319.753 126.978,321.396 132.805,322.821 137.833 C 323.354 139.712,324.071 142.262,324.414 143.500 C 325.242 146.484,324.587 146.179,330.064 146.128 L 334.750 146.083 334.802 145.636 C 334.855 145.173,334.477 143.831,332.159 136.250 C 331.403 133.775,330.467 130.700,330.080 129.417 C 329.693 128.133,328.989 125.808,328.514 124.250 L 327.652 121.417 328.034 121.180 C 329.935 120.002,331.837 117.189,332.614 114.407 C 333.330 111.846,333.336 102.820,332.624 100.272 C 331.334 95.657,328.625 92.979,323.903 91.651 C 322.258 91.189,307.694 90.940,307.124 91.365 M334.929 91.429 C 334.557 91.801,334.373 91.243,337.747 100.000 C 338.366 101.604,339.343 104.154,339.920 105.667 C 341.269 109.200,342.842 113.285,343.387 114.667 C 343.622 115.263,344.306 117.044,344.907 118.626 L 346.000 121.502 346.000 133.647 C 346.000 143.739,346.039 145.825,346.229 145.982 C 346.390 146.116,347.750 146.159,350.854 146.128 L 355.250 146.083 355.333 133.750 L 355.417 121.417 356.478 118.667 C 357.062 117.154,357.786 115.242,358.087 114.417 C 358.388 113.592,358.874 112.317,359.167 111.583 C 359.459 110.850,359.946 109.575,360.249 108.750 C 360.551 107.925,361.323 105.862,361.965 104.167 C 367.000 90.866,366.745 91.643,366.178 91.339 C 365.980 91.233,364.213 91.167,361.594 91.167 C 356.546 91.167,356.986 90.971,356.121 93.599 C 355.791 94.599,354.838 97.404,354.003 99.833 C 353.167 102.263,352.137 105.281,351.714 106.542 C 350.870 109.059,350.831 109.114,350.517 108.208 C 349.990 106.684,347.916 100.882,347.167 98.833 C 346.714 97.596,345.931 95.427,345.427 94.013 C 344.923 92.600,344.415 91.382,344.297 91.307 C 343.856 91.028,335.218 91.139,334.929 91.429 M369.541 91.304 C 369.375 91.410,369.341 97.012,369.375 118.760 L 369.417 146.083 373.602 146.128 C 376.974 146.164,377.825 146.128,377.976 145.945 C 378.113 145.780,378.177 141.378,378.207 129.936 L 378.250 114.154 379.063 116.869 C 379.510 118.362,380.311 121.046,380.843 122.833 C 381.375 124.621,382.257 127.583,382.804 129.417 C 383.350 131.250,384.299 134.438,384.913 136.500 C 387.021 143.586,387.697 145.750,387.871 145.961 C 388.005 146.124,389.045 146.162,392.398 146.128 L 396.750 146.083 396.792 118.760 C 396.826 97.012,396.792 91.410,396.625 91.304 C 396.190 91.028,388.549 91.141,388.262 91.429 C 388.028 91.662,387.999 93.194,387.993 105.720 L 387.986 119.750 387.263 117.417 C 386.865 116.133,385.962 113.133,385.255 110.750 C 384.548 108.367,383.610 105.217,383.170 103.750 C 382.729 102.283,381.903 99.508,381.333 97.583 C 380.763 95.658,380.115 93.473,379.894 92.727 C 379.572 91.644,379.416 91.350,379.120 91.271 C 378.562 91.121,369.781 91.152,369.541 91.304 M321.333 100.540 C 323.419 101.593,323.895 103.010,323.804 107.891 C 323.703 113.273,322.705 114.513,318.375 114.636 L 316.167 114.699 316.167 107.241 L 316.167 99.782 318.208 99.888 C 320.075 99.985,320.343 100.041,321.333 100.540 " stroke="none" fill="#fcfcfc" fill-rule="evenodd"></path><path id="path1" d="M176.504 37.329 C 175.799 38.034,175.841 38.505,176.834 41.083 C 177.187 42.000,179.434 48.000,181.828 54.417 C 184.222 60.833,186.510 66.946,186.913 68.000 C 187.315 69.054,188.703 72.767,189.997 76.250 C 191.291 79.733,192.678 83.446,193.080 84.500 C 195.559 90.999,195.438 89.695,193.940 93.756 C 193.265 95.586,192.023 98.958,191.180 101.250 C 190.337 103.542,189.244 106.504,188.750 107.833 C 188.256 109.162,187.355 111.600,186.746 113.250 C 186.138 114.900,185.413 116.850,185.134 117.583 C 184.856 118.317,184.305 119.817,183.910 120.917 C 183.516 122.017,182.620 124.454,181.919 126.333 C 181.218 128.212,180.356 130.537,180.003 131.500 C 179.650 132.462,178.861 134.600,178.251 136.250 C 174.496 146.391,174.506 146.355,175.242 147.091 L 175.652 147.500 184.797 147.500 L 193.942 147.500 194.313 147.105 C 194.569 146.833,196.375 141.646,200.161 130.314 C 203.174 121.295,205.731 113.662,205.844 113.350 L 206.050 112.784 206.919 115.184 C 207.778 117.556,208.822 120.493,210.824 126.167 C 211.390 127.771,212.386 130.583,213.037 132.417 C 214.858 137.547,215.713 139.959,216.994 143.583 C 217.743 145.703,218.299 147.023,218.521 147.208 C 218.876 147.505,236.832 147.682,237.576 147.396 C 237.901 147.272,238.333 146.481,238.333 146.012 C 238.333 145.826,237.439 143.291,236.347 140.379 C 235.254 137.466,233.301 132.233,232.006 128.750 C 230.712 125.267,229.435 121.854,229.170 121.167 C 228.904 120.479,227.629 117.067,226.336 113.583 C 225.042 110.100,223.616 106.275,223.165 105.083 C 221.516 100.719,219.295 94.775,218.337 92.158 L 217.876 90.900 218.501 89.158 C 219.166 87.306,220.272 84.298,222.082 79.417 C 222.694 77.767,223.595 75.329,224.083 74.000 C 224.572 72.671,225.545 70.046,226.247 68.167 C 226.948 66.287,227.809 63.962,228.160 63.000 C 228.511 62.038,229.300 59.900,229.913 58.250 C 230.952 55.455,232.484 51.305,234.004 47.167 C 234.358 46.204,235.176 43.992,235.822 42.250 C 237.125 38.740,237.234 38.053,236.591 37.409 L 236.182 37.000 227.100 37.000 L 218.019 37.000 217.595 37.375 C 217.210 37.716,212.762 50.571,207.725 65.904 C 206.846 68.580,206.964 68.605,205.913 65.527 C 204.879 62.500,204.067 60.167,202.333 55.250 C 201.492 52.867,200.442 49.867,199.999 48.583 C 199.555 47.300,198.705 44.862,198.110 43.167 C 197.514 41.471,196.829 39.521,196.588 38.833 C 195.884 36.823,196.890 37.000,186.148 37.000 C 177.096 37.000,176.824 37.009,176.504 37.329 M194.903 38.708 C 195.037 38.915,196.457 42.833,198.058 47.417 C 207.424 74.223,206.783 72.450,207.019 72.215 C 207.100 72.133,208.969 66.708,211.172 60.158 C 217.787 40.492,218.378 38.759,218.546 38.542 C 218.813 38.197,235.309 38.243,235.442 38.588 C 235.496 38.729,234.298 42.197,232.781 46.297 C 226.260 63.914,220.322 79.981,218.389 85.236 L 216.309 90.889 219.177 98.570 C 220.755 102.794,222.968 108.725,224.096 111.750 C 225.223 114.775,228.515 123.587,231.411 131.333 C 234.307 139.079,236.656 145.567,236.630 145.750 C 236.581 146.099,220.080 146.374,219.549 146.035 C 219.438 145.964,218.552 143.658,217.580 140.911 C 216.608 138.164,214.830 133.142,213.630 129.750 C 212.429 126.358,210.268 120.249,208.828 116.174 C 207.388 112.099,206.133 108.739,206.038 108.707 C 205.943 108.676,203.130 116.870,199.747 127.033 C 196.382 137.144,193.523 145.585,193.394 145.792 L 193.159 146.167 184.824 146.167 C 177.985 146.167,176.474 146.126,176.403 145.942 C 176.356 145.818,177.102 143.587,178.061 140.984 C 180.011 135.688,182.429 129.138,186.667 117.667 C 188.242 113.404,190.304 107.817,191.251 105.250 C 192.198 102.683,193.803 98.334,194.819 95.584 C 195.835 92.835,196.667 90.436,196.667 90.255 C 196.667 90.073,195.809 87.635,194.762 84.837 C 192.636 79.161,178.965 42.597,178.091 40.250 C 177.307 38.146,176.510 38.333,186.267 38.333 L 194.659 38.333 194.903 38.708 " stroke="none" fill="#08fcec" fill-rule="evenodd"></path><path id="path2" d="M177.703 38.542 C 177.582 38.689,177.695 39.187,178.091 40.250 C 178.965 42.597,192.636 79.161,194.762 84.837 C 195.809 87.635,196.667 90.073,196.667 90.255 C 196.667 90.436,195.835 92.835,194.819 95.584 C 193.803 98.334,192.198 102.683,191.251 105.250 C 190.304 107.817,188.242 113.404,186.667 117.667 C 182.429 129.138,180.011 135.688,178.061 140.984 C 177.102 143.587,176.356 145.818,176.403 145.942 C 176.474 146.126,177.985 146.167,184.824 146.167 L 193.159 146.167 193.394 145.792 C 193.523 145.585,196.382 137.144,199.747 127.033 C 203.130 116.870,205.943 108.676,206.038 108.707 C 206.133 108.739,207.388 112.099,208.828 116.174 C 210.268 120.249,212.429 126.358,213.630 129.750 C 214.830 133.142,216.608 138.164,217.580 140.911 C 218.552 143.658,219.438 145.964,219.549 146.035 C 220.080 146.374,236.581 146.099,236.630 145.750 C 236.656 145.567,234.307 139.079,231.411 131.333 C 228.515 123.587,225.223 114.775,224.096 111.750 C 222.968 108.725,220.755 102.794,219.177 98.570 L 216.309 90.889 218.389 85.236 C 220.322 79.981,226.260 63.914,232.781 46.297 C 234.298 42.197,235.496 38.729,235.442 38.588 C 235.309 38.243,218.813 38.197,218.546 38.542 C 218.378 38.759,217.787 40.492,211.172 60.158 C 208.969 66.708,207.100 72.133,207.019 72.215 C 206.783 72.450,207.424 74.223,198.058 47.417 C 196.457 42.833,195.037 38.915,194.903 38.708 L 194.659 38.333 186.267 38.333 C 179.755 38.333,177.836 38.380,177.703 38.542 M200.661 55.665 C 206.522 72.403,206.827 73.184,207.245 72.509 C 207.337 72.359,218.667 38.835,218.667 38.710 C 218.667 38.686,222.379 38.667,226.917 38.667 C 233.050 38.667,235.167 38.716,235.167 38.859 C 235.167 39.084,235.073 39.339,223.085 71.750 C 216.262 90.197,216.167 90.461,216.167 90.885 C 216.167 91.100,217.131 93.858,218.310 97.013 C 219.489 100.168,221.321 105.075,222.382 107.917 C 229.136 126.016,233.244 137.011,234.760 141.050 C 235.717 143.599,236.500 145.718,236.500 145.760 C 236.500 145.802,232.694 145.817,228.042 145.793 L 219.583 145.750 219.140 144.500 C 211.853 123.951,208.372 114.109,207.381 111.250 C 206.456 108.584,206.180 108.035,205.863 108.232 C 205.770 108.289,203.015 116.380,199.740 126.210 C 196.466 136.040,193.642 144.477,193.465 144.958 L 193.143 145.833 184.905 145.833 C 179.828 145.833,176.667 145.773,176.667 145.675 C 176.667 145.589,177.949 142.045,179.517 137.800 C 181.084 133.556,182.877 128.696,183.500 127.000 C 184.123 125.304,185.923 120.429,187.498 116.167 C 189.074 111.904,191.152 106.279,192.116 103.667 C 193.080 101.054,194.469 97.304,195.202 95.333 C 195.935 93.362,196.651 91.402,196.793 90.977 L 197.052 90.204 192.540 78.144 C 180.807 46.779,177.833 38.813,177.833 38.741 C 177.833 38.698,181.637 38.683,186.286 38.707 L 194.739 38.750 200.661 55.665 " stroke="none" fill="#a4fcf7" fill-rule="evenodd"></path><path id="path3" d="M235.019 38.861 C 235.009 39.014,234.957 39.277,234.904 39.445 C 234.813 39.734,234.818 39.735,234.999 39.453 C 235.103 39.290,235.155 39.027,235.114 38.870 C 235.046 38.612,235.037 38.611,235.019 38.861 M194.929 39.667 C 194.990 39.896,195.110 40.196,195.195 40.333 C 195.302 40.507,195.315 40.456,195.238 40.167 C 195.176 39.938,195.057 39.637,194.972 39.500 C 194.865 39.326,194.851 39.377,194.929 39.667 M214.867 49.950 C 214.620 50.754,214.739 50.873,215.000 50.083 C 215.110 49.750,215.167 49.445,215.128 49.406 C 215.088 49.366,214.971 49.611,214.867 49.950 M203.096 63.000 C 203.157 63.229,203.276 63.529,203.361 63.667 C 203.469 63.840,203.482 63.790,203.404 63.500 C 203.343 63.271,203.224 62.971,203.139 62.833 C 203.031 62.660,203.018 62.710,203.096 63.000 M204.096 65.833 C 204.157 66.063,204.276 66.362,204.361 66.500 C 204.469 66.674,204.482 66.623,204.404 66.333 C 204.343 66.104,204.224 65.804,204.139 65.667 C 204.031 65.493,204.018 65.544,204.096 65.833 M208.867 67.783 C 208.620 68.587,208.739 68.706,209.000 67.917 C 209.110 67.584,209.167 67.279,209.128 67.239 C 209.088 67.199,208.971 67.444,208.867 67.783 M206.338 72.258 C 206.323 72.774,207.220 73.037,207.399 72.570 C 207.555 72.163,207.509 72.050,207.320 72.375 C 207.227 72.535,207.045 72.667,206.917 72.667 C 206.788 72.667,206.607 72.535,206.513 72.375 C 206.420 72.215,206.341 72.162,206.338 72.258 M216.104 90.256 C 216.047 90.405,216.009 90.727,216.019 90.972 C 216.034 91.305,216.071 91.249,216.168 90.750 C 216.306 90.042,216.276 89.808,216.104 90.256 M205.606 108.375 C 205.329 108.818,204.436 111.491,204.533 111.588 C 204.569 111.625,204.844 110.909,205.143 109.998 C 205.729 108.210,205.863 108.019,206.299 108.361 C 206.555 108.561,206.561 108.554,206.355 108.292 C 206.052 107.906,205.889 107.924,205.606 108.375 M208.929 115.667 C 208.990 115.896,209.110 116.196,209.195 116.333 C 209.302 116.507,209.315 116.456,209.238 116.167 C 209.176 115.938,209.057 115.638,208.972 115.500 C 208.865 115.326,208.851 115.377,208.929 115.667 M212.762 126.500 C 212.824 126.729,212.943 127.029,213.028 127.167 C 213.135 127.340,213.149 127.290,213.071 127.000 C 213.010 126.771,212.890 126.471,212.805 126.333 C 212.698 126.160,212.685 126.210,212.762 126.500 M215.762 135.000 C 215.824 135.229,215.943 135.529,216.028 135.667 C 216.135 135.840,216.149 135.790,216.071 135.500 C 216.010 135.271,215.890 134.971,215.805 134.833 C 215.698 134.660,215.685 134.710,215.762 135.000 " stroke="none" fill="#d0fcfc" fill-rule="evenodd"></path><path id="path4" d="M178.111 38.778 C 178.050 38.839,178.001 38.970,178.003 39.069 C 178.004 39.174,178.061 39.161,178.139 39.039 C 178.245 38.871,179.988 38.836,186.454 38.872 C 190.954 38.897,194.600 38.860,194.558 38.792 C 194.462 38.637,178.265 38.624,178.111 38.778 M226.863 38.792 C 234.252 38.833,234.815 38.857,234.885 39.127 C 234.942 39.343,234.966 39.321,234.981 39.042 L 235.000 38.667 226.958 38.707 L 218.917 38.747 226.863 38.792 M195.939 42.833 C 195.995 43.063,196.144 43.475,196.269 43.750 C 196.452 44.152,196.476 44.168,196.394 43.833 C 196.338 43.604,196.190 43.192,196.064 42.917 C 195.882 42.515,195.857 42.499,195.939 42.833 M215.934 47.115 C 215.695 47.832,215.506 48.493,215.513 48.584 C 215.519 48.675,215.744 48.118,216.011 47.346 C 216.278 46.573,216.468 45.912,216.432 45.877 C 216.397 45.841,216.173 46.398,215.934 47.115 M198.429 50.000 C 198.490 50.229,198.610 50.529,198.695 50.667 C 198.802 50.840,198.815 50.790,198.738 50.500 C 198.676 50.271,198.557 49.971,198.472 49.833 C 198.365 49.660,198.351 49.710,198.429 50.000 M214.685 50.852 C 214.583 51.146,214.528 51.417,214.563 51.452 C 214.599 51.488,214.712 51.276,214.815 50.981 C 214.917 50.687,214.972 50.417,214.937 50.381 C 214.901 50.345,214.788 50.557,214.685 50.852 M200.762 56.667 C 200.824 56.896,200.943 57.196,201.028 57.333 C 201.135 57.507,201.149 57.456,201.071 57.167 C 201.010 56.938,200.890 56.637,200.805 56.500 C 200.698 56.326,200.685 56.377,200.762 56.667 M209.934 64.948 C 209.695 65.665,209.506 66.326,209.513 66.417 C 209.519 66.509,209.744 65.951,210.011 65.179 C 210.278 64.407,210.468 63.746,210.432 63.710 C 210.397 63.675,210.173 64.232,209.934 64.948 M204.262 66.667 C 204.324 66.896,204.443 67.196,204.528 67.333 C 204.635 67.507,204.649 67.456,204.571 67.167 C 204.510 66.938,204.390 66.637,204.305 66.500 C 204.198 66.326,204.185 66.377,204.262 66.667 M224.019 68.519 C 223.916 68.813,223.861 69.083,223.897 69.119 C 223.932 69.155,224.045 68.943,224.148 68.648 C 224.251 68.354,224.306 68.083,224.270 68.048 C 224.234 68.012,224.121 68.224,224.019 68.519 M223.019 71.185 C 222.916 71.480,222.861 71.750,222.897 71.786 C 222.932 71.821,223.045 71.609,223.148 71.315 C 223.251 71.020,223.306 70.750,223.270 70.714 C 223.234 70.679,223.121 70.891,223.019 71.185 M206.493 72.716 C 206.744 73.047,207.366 73.039,207.433 72.704 C 207.456 72.587,207.437 72.569,207.390 72.662 C 207.274 72.898,206.782 72.877,206.500 72.625 C 206.300 72.447,206.299 72.460,206.493 72.716 M216.185 89.685 C 216.083 89.980,216.028 90.250,216.063 90.286 C 216.099 90.321,216.212 90.109,216.315 89.815 C 216.417 89.520,216.472 89.250,216.437 89.214 C 216.401 89.179,216.288 89.391,216.185 89.685 M196.019 93.352 C 195.916 93.646,195.861 93.917,195.897 93.952 C 195.932 93.988,196.045 93.776,196.148 93.481 C 196.251 93.187,196.306 92.917,196.270 92.881 C 196.234 92.845,196.121 93.057,196.019 93.352 M195.352 95.185 C 195.249 95.480,195.194 95.750,195.230 95.786 C 195.266 95.821,195.379 95.609,195.481 95.315 C 195.584 95.020,195.639 94.750,195.603 94.714 C 195.568 94.679,195.455 94.891,195.352 95.185 M193.685 99.685 C 193.583 99.980,193.528 100.250,193.563 100.286 C 193.599 100.321,193.712 100.109,193.815 99.815 C 193.917 99.520,193.972 99.250,193.937 99.214 C 193.901 99.179,193.788 99.391,193.685 99.685 M221.929 107.333 C 221.990 107.563,222.110 107.862,222.195 108.000 C 222.302 108.174,222.315 108.123,222.238 107.833 C 222.176 107.604,222.057 107.304,221.972 107.167 C 221.865 106.993,221.851 107.044,221.929 107.333 M206.929 109.667 C 206.990 109.896,207.110 110.196,207.195 110.333 C 207.302 110.507,207.315 110.456,207.238 110.167 C 207.176 109.938,207.057 109.638,206.972 109.500 C 206.865 109.326,206.851 109.377,206.929 109.667 M189.685 110.519 C 189.583 110.813,189.528 111.083,189.563 111.119 C 189.599 111.155,189.712 110.943,189.815 110.648 C 189.917 110.354,189.972 110.083,189.937 110.048 C 189.901 110.012,189.788 110.224,189.685 110.519 M204.262 111.762 C 204.201 112.006,204.183 112.238,204.222 112.277 C 204.261 112.317,204.343 112.149,204.405 111.905 C 204.466 111.661,204.484 111.429,204.445 111.389 C 204.406 111.350,204.323 111.518,204.262 111.762 M202.767 116.281 C 202.437 117.273,202.172 118.159,202.179 118.250 C 202.186 118.342,202.485 117.559,202.844 116.512 C 203.202 115.464,203.467 114.578,203.432 114.543 C 203.397 114.508,203.098 115.290,202.767 116.281 M200.851 122.031 C 200.474 123.160,200.172 124.159,200.179 124.250 C 200.186 124.342,200.523 123.447,200.927 122.262 C 201.331 121.076,201.633 120.078,201.598 120.043 C 201.563 120.008,201.227 120.903,200.851 122.031 M185.685 121.352 C 185.583 121.646,185.528 121.917,185.563 121.952 C 185.599 121.988,185.712 121.776,185.815 121.481 C 185.917 121.187,185.972 120.917,185.937 120.881 C 185.901 120.845,185.788 121.057,185.685 121.352 M228.762 125.667 C 228.824 125.896,228.943 126.196,229.028 126.333 C 229.135 126.507,229.149 126.456,229.071 126.167 C 229.010 125.938,228.890 125.638,228.805 125.500 C 228.698 125.326,228.685 125.377,228.762 125.667 M198.767 128.281 C 198.345 129.548,198.006 130.659,198.013 130.750 C 198.020 130.842,198.394 129.834,198.844 128.512 C 199.294 127.189,199.633 126.078,199.598 126.043 C 199.563 126.008,199.189 127.015,198.767 128.281 M213.772 129.000 C 213.829 129.229,213.977 129.642,214.102 129.917 C 214.285 130.318,214.310 130.335,214.228 130.000 C 214.171 129.771,214.023 129.358,213.898 129.083 C 213.715 128.682,213.690 128.665,213.772 129.000 M230.262 129.667 C 230.324 129.896,230.443 130.196,230.528 130.333 C 230.635 130.507,230.649 130.456,230.571 130.167 C 230.510 129.938,230.390 129.637,230.305 129.500 C 230.198 129.326,230.185 129.377,230.262 129.667 M196.851 134.031 C 196.383 135.435,196.006 136.659,196.013 136.750 C 196.020 136.842,196.431 135.722,196.927 134.261 C 197.423 132.801,197.800 131.578,197.765 131.543 C 197.730 131.508,197.319 132.628,196.851 134.031 M215.596 134.167 C 215.657 134.396,215.776 134.696,215.861 134.833 C 215.969 135.007,215.982 134.956,215.904 134.667 C 215.843 134.438,215.724 134.137,215.639 134.000 C 215.531 133.826,215.518 133.877,215.596 134.167 M194.851 140.031 C 194.383 141.435,194.006 142.659,194.013 142.750 C 194.020 142.842,194.431 141.722,194.927 140.261 C 195.423 138.801,195.800 137.578,195.765 137.543 C 195.730 137.508,195.319 138.628,194.851 140.031 M217.439 139.333 C 217.495 139.563,217.644 139.975,217.769 140.250 C 217.952 140.652,217.976 140.668,217.894 140.333 C 217.838 140.104,217.690 139.692,217.564 139.417 C 217.382 139.015,217.357 138.999,217.439 139.333 M234.429 140.833 C 234.490 141.063,234.610 141.362,234.695 141.500 C 234.802 141.674,234.815 141.623,234.738 141.333 C 234.676 141.104,234.557 140.804,234.472 140.667 C 234.365 140.493,234.351 140.544,234.429 140.833 M193.436 144.269 C 193.288 144.702,193.196 145.085,193.232 145.121 C 193.267 145.156,193.417 144.830,193.564 144.397 C 193.712 143.964,193.804 143.581,193.768 143.546 C 193.733 143.511,193.583 143.836,193.436 144.269 M219.439 145.000 C 219.652 145.871,219.305 145.839,228.050 145.793 C 234.512 145.759,236.231 145.706,236.265 145.537 C 236.289 145.421,236.270 145.402,236.224 145.496 C 236.167 145.609,233.388 145.667,227.987 145.667 L 219.834 145.667 219.586 145.125 C 219.409 144.741,219.366 144.704,219.439 145.000 M176.853 145.460 L 176.833 145.837 184.944 145.793 C 191.357 145.759,193.065 145.706,193.099 145.537 C 193.122 145.421,193.104 145.402,193.057 145.496 C 192.887 145.839,177.038 145.720,176.948 145.375 C 176.891 145.156,176.867 145.178,176.853 145.460 " stroke="none" fill="#e4fcfc" fill-rule="evenodd"></path></g></svg>