<svg width="171" height="171" xmlns="http://www.w3.org/2000/svg" xmlns:svg="http://www.w3.org/2000/svg">
 <style type="text/css">.st0{fill:#FF4500;}
	.st1{fill:#FFFFFF;}
	.st2{display:none;}
	.st3{display:inline;fill:none;stroke:#D8D8D8;stroke-width:0.5;stroke-miterlimit:10;}</style>

 <g>
  <title>Layer 1</title>
  <g id="Artwork">
   <g id="svg_1">
    <circle id="svg_2" r="85.5" cy="85.499998" cx="85.499998" class="st0"/>
    <path id="svg_3" d="m142.5,85.499992c0,-6.900009 -5.600006,-12.5 -12.5,-12.5c-3.400017,0 -6.400017,1.300003 -8.600014,3.5c-8.5,-6.100006 -20.300003,-10.100006 -33.300003,-10.600006l5.700012,-26.699997l18.5,3.899994c0.199997,4.700012 4.099991,8.5 8.899994,8.5c4.899994,0 8.899986,-4 8.899986,-8.899994c0,-4.900002 -3.999992,-8.900002 -8.899986,-8.900002c-3.5,0 -6.5,2 -7.899994,5l-20.700012,-4.400002c-0.599991,-0.099998 -1.199997,0 -1.699997,0.300003c-0.5,0.299995 -0.800003,0.799995 -1,1.400002l-6.300003,29.799995c-13.299988,0.400009 -25.199997,4.300003 -33.799988,10.600006c-2.200012,-2.100006 -5.300003,-3.5 -8.600006,-3.5c-6.900002,0 -12.5,5.599991 -12.5,12.5c0,5.099991 3,9.399994 7.400002,11.399994c-0.200005,1.199997 -0.300003,2.5 -0.300003,3.800003c0,19.199997 22.299995,34.700005 49.900002,34.700005s49.900017,-15.500008 49.900017,-34.700005c0,-1.300003 -0.100006,-2.5 -0.300018,-3.699997c4.100006,-2 7.200012,-6.399994 7.200012,-11.5zm-85.500008,8.900009c0,-4.900009 4,-8.900009 8.899994,-8.900009c4.900009,0 8.900009,4 8.900009,8.900009c0,4.899994 -4,8.899994 -8.900009,8.899994c-4.899994,0 -8.899994,-4 -8.899994,-8.899994zm49.700012,23.5c-6.099991,6.099991 -17.699997,6.5 -21.099991,6.5c-3.400009,0 -15.100006,-0.5 -21.100006,-6.5c-0.899994,-0.900009 -0.899994,-2.400009 0,-3.300003c0.899994,-0.899994 2.399994,-0.899994 3.300003,0c3.800003,3.800003 12,5.199997 17.899994,5.199997s14,-1.399994 17.899994,-5.199997c0.899994,-0.899994 2.399994,-0.899994 3.300003,0c0.699997,1 0.699997,2.399994 -0.199997,3.300003zm-1.600006,-14.600006c-4.899994,0 -8.899994,-4 -8.899994,-8.899994c0,-4.900009 4,-8.900009 8.899994,-8.900009c4.899994,0 8.899994,4 8.899994,8.900009c0,4.899994 -4,8.899994 -8.899994,8.899994z" class="st1"/>
   </g>
  </g>
  <g class="st2" id="Spacing_Guide">
   <rect id="svg_4" height="85.4" width="85.4" class="st3"/>
   <rect id="svg_5" height="85.4" width="341.8" class="st3"/>
   <rect id="svg_6" height="85.4" width="341.8" class="st3" y="256.3"/>
   <rect id="svg_7" height="341.8" width="85.4" class="st3"/>
   <rect id="svg_8" height="341.8" width="85.4" class="st3" x="256.4"/>
  </g>
 </g>
</svg>